<?xml version="1.0" encoding="UTF-8" standalone="no"?>
<!-- Created with Inkscape (http://www.inkscape.org/) -->

<svg
   xmlns:dc="http://purl.org/dc/elements/1.1/"
   xmlns:cc="http://creativecommons.org/ns#"
   xmlns:rdf="http://www.w3.org/1999/02/22-rdf-syntax-ns#"
   xmlns:svg="http://www.w3.org/2000/svg"
   xmlns="http://www.w3.org/2000/svg"
   xmlns:sodipodi="http://sodipodi.sourceforge.net/DTD/sodipodi-0.dtd"
   xmlns:inkscape="http://www.inkscape.org/namespaces/inkscape"
   width="744.09448819"
   height="1052.3622047"
   id="svg10389"
   version="1.1"
   inkscape:version="0.48.1 r9760"
   sodipodi:docname="tshirt_final.svg"
   inkscape:export-filename="/home/e_git/Sviluppo/entpy-projects/beauty_and_pics/graphics/tshirt/maglia_finale.png"
   inkscape:export-xdpi="147"
   inkscape:export-ydpi="147">
  <defs
     id="defs10391" />
  <sodipodi:namedview
     id="base"
     pagecolor="#ffffff"
     bordercolor="#666666"
     borderopacity="1.0"
     inkscape:pageopacity="0.0"
     inkscape:pageshadow="2"
     inkscape:zoom="3.959798"
     inkscape:cx="382.46518"
     inkscape:cy="364.69675"
     inkscape:document-units="px"
     inkscape:current-layer="layer1"
     showgrid="false"
     inkscape:window-width="931"
     inkscape:window-height="679"
     inkscape:window-x="444"
     inkscape:window-y="158"
     inkscape:window-maximized="0" />
  <metadata
     id="metadata10394">
    <rdf:RDF>
      <cc:Work
         rdf:about="">
        <dc:format>image/svg+xml</dc:format>
        <dc:type
           rdf:resource="http://purl.org/dc/dcmitype/StillImage" />
        <dc:title />
      </cc:Work>
    </rdf:RDF>
  </metadata>
  <g
     inkscape:label="Livello 1"
     inkscape:groupmode="layer"
     id="layer1">
    <path
       d="m 372.04659,45.622668 55.34181,-8.949936 c 0,0 -6.79493,43.281794 -55.34181,43.281794 -48.54544,0 -54.68061,-43.281794 -54.68061,-43.281794 l 54.68061,8.949936 z"
       style="fill:#666666;fill-opacity:1;fill-rule:nonzero;stroke:none"
       id="path50696"
       inkscape:connector-curvature="0" />
    <path
       d="m 177.1349,178.98376 -4.07233,11.94477 c 0,0 24.7063,30.40933 73.84813,39.09709 0,0 3.74102,-6.87559 4.88624,-10.04617 1.14377,-3.16914 -74.66203,-40.99569 -74.66203,-40.99569"
       style="fill:#000000;fill-opacity:1;fill-rule:nonzero;stroke:none"
       id="path50698"
       inkscape:connector-curvature="0" />
    <path
       d="m 566.95957,178.98376 4.07235,11.94477 c 0,0 -24.70632,30.40933 -73.84814,39.09709 0,0 -3.74246,-6.87559 -4.88624,-10.04617 -1.14377,-3.16914 74.66203,-40.99569 74.66203,-40.99569"
       style="fill:#000000;fill-opacity:1;fill-rule:nonzero;stroke:none"
       id="path50700"
       inkscape:connector-curvature="0" />
    <path
       d="m 424.19074,30.061182 c 0,0 -28.64614,11.27061 -52.14386,11.27061 -23.49917,0 -52.59618,-12.021119 -52.59618,-12.021119 l -8.11444,6.460721 c 0,0 25.2494,14.125716 60.71062,14.125716 35.4641,0 60.70917,-13.223952 60.70917,-13.223952 l -8.56531,-6.611976 z"
       style="fill:#000000;fill-opacity:1;fill-rule:nonzero;stroke:none"
       id="path50702"
       inkscape:connector-curvature="0" />
    <path
       d="m 424.19074,30.061182 c 0,0 -12.02112,44.630119 -51.84279,44.630119 -39.82311,0 -52.89725,-45.380628 -52.89725,-45.380628 l -8.11444,6.460721 c 0,0 16.98227,49.438566 60.86043,49.438566 43.87961,0 60.55936,-48.536802 60.55936,-48.536802 l -8.56531,-6.611976 z"
       style="fill:#000000;fill-opacity:1;fill-rule:nonzero;stroke:none"
       id="path50704"
       inkscape:connector-curvature="0" />
    <path
       d="m 372.04659,454.10919 c 79.3826,0 119.82802,-13.89811 119.82802,-13.89811 l 0,10.6872 c 0,0 -34.07257,13.89955 -119.82802,13.89955 -85.75545,0 -119.82802,-13.89955 -119.82802,-13.89955 l 0,-10.6872 c 0,0 40.4483,13.89811 119.82802,13.89811"
       style="fill:#000000;fill-opacity:1;fill-rule:nonzero;stroke:none"
       id="path50706"
       inkscape:connector-curvature="0" />
    <g
       style="fill:#000000;fill-opacity:1"
       transform="matrix(1.4405176,0,0,-1.4405176,253.91564,175.04986)"
       id="g50708">
      <path
         inkscape:connector-curvature="0"
         id="path50710"
         style="fill:#000000;fill-opacity:1;fill-rule:nonzero;stroke:none"
         d="m 0,0 c -8.233,13.232 -28.523,54.988 -26.76,60.28 1.765,5.293 14.409,13.82 31.17,17.937 16.761,4.117 35.452,17.844 35.452,17.844 C 55.32,69.65 82.006,66.014 82.006,66.014 c 0,0 26.687,3.636 42.144,30.047 0,0 18.692,-13.727 35.452,-17.844 C 176.363,74.1 189.008,65.573 190.771,60.28 192.536,54.988 172.246,13.232 164.013,0 c -8.234,-13.232 -17.789,-126.293 -9.85,-143.495 7.939,-17.202 11.026,-40.578 11.026,-40.578 0,0 -28.752,-9.704 -83.183,-9.704 -54.431,0 -83.184,9.704 -83.184,9.704 0,0 3.088,23.376 11.028,40.578 C 17.789,-126.293 8.232,-13.232 0,0" />
    </g>
    <g
       style="fill:#0d0d0d;fill-opacity:1"
       transform="matrix(1.4405176,0,0,-1.4405176,215.36773,88.21503)"
       id="g50712">
      <path
         inkscape:connector-curvature="0"
         id="path50714"
         style="fill:#0d0d0d;fill-opacity:1;fill-rule:nonzero;stroke:none"
         d="m 0,0 c 0,0 -21.076,-26.07 -26.541,-63.011 0,0 24.125,-26.01 51.83,-28.46 0,0 3.58,10.743 7.35,14.324 0,0 -17.217,83.24 -32.639,77.147" />
    </g>
    <g
       style="fill:#0d0d0d;fill-opacity:1"
       transform="matrix(1.4405176,0,0,-1.4405176,528.72538,88.21503)"
       id="g50716">
      <path
         inkscape:connector-curvature="0"
         id="path50718"
         style="fill:#0d0d0d;fill-opacity:1;fill-rule:nonzero;stroke:none"
         d="m 0,0 c 0,0 21.077,-26.07 26.542,-63.011 0,0 -24.126,-26.01 -51.83,-28.46 0,0 -3.58,10.743 -7.351,14.324 0,0 17.217,83.24 32.639,77.147" />
    </g>
    <g
       inkscape:export-ydpi="399"
       inkscape:export-xdpi="399"
       inkscape:export-filename="/home/maria/Sviluppo/entpy-projects/beauty_and_pics/graphics/social/logo_large.png"
       transform="matrix(0.42383754,0,0,0.42383754,327.29077,93.418468)"
       id="g50754">
      <text
         transform="matrix(0.99415936,-0.107922,0.107922,0.99415936,0,0)"
         xml:space="preserve"
         style="font-size:20.94485855px;font-style:normal;font-weight:normal;line-height:125%;letter-spacing:0px;word-spacing:0px;fill:#075cff;fill-opacity:1;stroke:#81acff;stroke-width:0.72951514;stroke-miterlimit:4;stroke-opacity:1;stroke-dasharray:none;font-family:Sans"
         x="16.250231"
         y="183.76266"
         id="text50756"
         sodipodi:linespacing="125%"><tspan
           sodipodi:role="line"
           x="16.250231"
           y="183.76266"
           style="font-size:41.03522491px;font-style:normal;font-variant:normal;font-weight:bold;font-stretch:normal;fill:#075cff;fill-opacity:1;stroke:#81acff;stroke-width:0.72951514;stroke-miterlimit:4;stroke-opacity:1;stroke-dasharray:none;font-family:Ubuntu;-inkscape-font-specification:Ubuntu Bold"
           id="tspan50758">Beauty</tspan></text>
      <text
         transform="matrix(0.99395259,0.10981006,-0.10981006,0.99395259,0,0)"
         sodipodi:linespacing="125%"
         id="text50760"
         y="203.68138"
         x="95.739555"
         style="font-size:22.60283089px;font-style:normal;font-weight:normal;line-height:125%;letter-spacing:0px;word-spacing:0px;fill:#ff11b5;fill-opacity:1;stroke:#ff81d8;stroke-width:0.78726268;stroke-miterlimit:4;stroke-opacity:1;stroke-dasharray:none;font-family:Sans"
         xml:space="preserve"><tspan
           style="font-size:44.28352356px;font-style:normal;font-variant:normal;font-weight:bold;font-stretch:normal;fill:#ff11b5;fill-opacity:1;stroke:#ff81d8;stroke-width:0.78726268;stroke-miterlimit:4;stroke-opacity:1;stroke-dasharray:none;font-family:Ubuntu;-inkscape-font-specification:Ubuntu Bold"
           y="203.68138"
           x="95.739555"
           sodipodi:role="line"
           id="tspan50762">Pics</tspan></text>
      <text
         inkscape:transform-center-y="-27.112163"
         xml:space="preserve"
         style="font-size:13.30785942px;font-style:normal;font-variant:normal;font-weight:300;font-stretch:normal;line-height:125%;letter-spacing:0px;word-spacing:0px;fill:#ffffff;fill-opacity:1;stroke:none;font-family:Lato;-inkscape-font-specification:Lato Light"
         x="43.422447"
         y="203.8085"
         id="text50764"
         sodipodi:linespacing="125%"><tspan
           sodipodi:role="line"
           x="43.422447"
           y="203.8085"
           id="tspan50766"
           style="font-size:14.48488426px;font-style:normal;font-variant:normal;font-weight:300;font-stretch:normal;fill:#a1a1a1;fill-opacity:1;stroke:none;font-family:Ubuntu;-inkscape-font-specification:Ubuntu Light">and</tspan></text>
    </g>
    <g
       id="g10495"
       transform="matrix(1.1524141,0,0,1.1524141,-77.792158,-51.101861)">
      <path
         inkscape:connector-curvature="0"
         id="path34672"
         style="fill:#000000;fill-opacity:1;fill-rule:nonzero;stroke:none"
         d="m 221.21134,684.07637 -3.53375,10.365 c 0,0 21.43875,26.38751 64.08125,33.92625 0,0 3.24625,-5.96625 4.24125,-8.7175 0.99125,-2.75 -64.78875,-35.57375 -64.78875,-35.57375" />
      <path
         inkscape:connector-curvature="0"
         id="path34674"
         style="fill:#000000;fill-opacity:1;fill-rule:nonzero;stroke:none"
         d="m 559.48046,684.07637 3.5325,10.365 c 0,0 -21.4375,26.38751 -64.08,33.92625 0,0 -3.2475,-5.96625 -4.24,-8.7175 -0.99375,-2.75 64.7875,-35.57375 64.7875,-35.57375" />
      <path
         inkscape:connector-curvature="0"
         id="path34676"
         style="fill:#000000;fill-opacity:1;fill-rule:nonzero;stroke:none"
         d="m 435.59371,554.84975 c 0,0 -24.8575,9.78 -45.2475,9.78 -20.39125,0 -45.64,-10.43125 -45.64,-10.43125 l -7.04125,5.60625 c 0,0 21.90875,12.2575 52.68125,12.2575 30.7725,0 52.67875,-11.475 52.67875,-11.475 l -7.43125,-5.7375 z" />
      <path
         inkscape:connector-curvature="0"
         id="path34678"
         style="fill:#000000;fill-opacity:1;fill-rule:nonzero;stroke:none"
         d="m 390.34596,922.81475 c 68.8825,0 103.98,-12.06 103.98,-12.06 l 0,9.27375 c 0,0 -29.56625,12.06125 -103.98,12.06125 -74.41374,0 -103.97999,-12.06125 -103.97999,-12.06125 l 0,-9.27375 c 0,0 35.09749,12.06 103.97999,12.06" />
      <g
         id="g34680"
         transform="matrix(1.25,0,0,-1.25,287.83734,680.66275)"
         style="fill:#000000;fill-opacity:1">
        <path
           d="m 0,0 c -8.233,13.232 -28.523,54.988 -26.759,60.28 1.765,5.293 14.409,13.82 31.17,17.937 16.761,4.117 35.452,17.844 35.452,17.844 25.179,-3.964 42.682,-6.039 42.682,-6.039 0,0 14.91,0.26 41.605,6.039 0,0 18.692,-13.727 35.453,-17.844 C 176.363,74.1 189.008,65.573 190.772,60.28 192.537,54.988 172.246,13.232 164.014,0 c -8.234,-13.232 -17.789,-126.293 -9.851,-143.495 7.94,-17.202 11.027,-40.578 11.027,-40.578 0,0 -28.753,-9.704 -83.183,-9.704 -54.431,0 -83.184,9.704 -83.184,9.704 0,0 3.088,23.376 11.028,40.578 C 17.789,-126.293 8.234,-13.232 0,0"
           style="fill:#000000;fill-opacity:1;fill-rule:nonzero;stroke:none"
           id="path34682"
           inkscape:connector-curvature="0" />
      </g>
      <g
         id="g34684"
         transform="matrix(1.25,0,0,-1.25,254.38884,605.31238)"
         style="fill:#0d0d0d;fill-opacity:1">
        <path
           d="m 0,0 c 0,0 -21.076,-26.07 -26.542,-63.011 0,0 24.127,-26.01 51.831,-28.46 0,0 3.58,10.743 7.351,14.324 0,0 -17.218,83.24 -32.64,77.147"
           style="fill:#0d0d0d;fill-opacity:1;fill-rule:nonzero;stroke:none"
           id="path34686"
           inkscape:connector-curvature="0" />
      </g>
      <g
         id="g34688"
         transform="matrix(1.25,0,0,-1.25,526.30297,605.31238)"
         style="fill:#0d0d0d;fill-opacity:1">
        <path
           d="m 0,0 c 0,0 21.076,-26.07 26.542,-63.011 0,0 -24.126,-26.01 -51.83,-28.46 0,0 -3.581,10.743 -7.351,14.324 0,0 17.217,83.24 32.639,77.147"
           style="fill:#0d0d0d;fill-opacity:1;fill-rule:nonzero;stroke:none"
           id="path34690"
           inkscape:connector-curvature="0" />
      </g>
      <text
         xml:space="preserve"
         style="font-size:5.94958019px;font-style:normal;font-weight:normal;line-height:125%;letter-spacing:0px;word-spacing:0px;fill:#a1a1a1;fill-opacity:1;stroke:none;font-family:Sans"
         x="661.18829"
         y="-388.59637"
         id="text34692"
         sodipodi:linespacing="125%"
         transform="matrix(0,1,-1,0,0,0)"><tspan
           style="font-style:normal;font-variant:normal;font-weight:normal;font-stretch:normal;font-family:Ubuntu;-inkscape-font-specification:Ubuntu"
           sodipodi:role="line"
           id="tspan34694"
           x="661.18829"
           y="-388.59637">www.beautyandpics.com</tspan></text>
      <g
         transform="matrix(1.25,0,0,-1.25,191.95542,1880.3695)"
         id="g10382">
        <text
           xml:space="preserve"
           style="font-size:9.01818274999999936px;font-style:normal;font-weight:normal;line-height:125%;letter-spacing:0px;word-spacing:0px;fill:#000000;fill-opacity:1;stroke:#ff11b5;stroke-width:0.31410568999999999;stroke-miterlimit:4;stroke-opacity:1;stroke-dasharray:none;font-family:Sans"
           x="44.684101"
           y="-1001.364"
           id="text10332"
           sodipodi:linespacing="125%"
           transform="matrix(0.9939526,-0.10981001,-0.10981001,-0.9939526,0,0)"><tspan
             id="tspan10334"
             sodipodi:role="line"
             x="44.684101"
             y="-1001.364"
             style="font-size:17.66844748999999837px;font-style:normal;font-variant:normal;font-weight:bold;font-stretch:normal;fill:#000000;fill-opacity:1;stroke:#ff11b5;stroke-width:0.31410568999999999;stroke-miterlimit:4;stroke-opacity:1;stroke-dasharray:none;font-family:Ubuntu;-inkscape-font-specification:Ubuntu Bold">P</tspan></text>
        <text
           sodipodi:linespacing="125%"
           id="text10328"
           y="-976.66626"
           x="257.83658"
           style="font-size:9.01818274999999936px;font-style:normal;font-weight:normal;line-height:125%;letter-spacing:0px;word-spacing:0px;fill:#000000;fill-opacity:1;stroke:#075cff;stroke-width:0.31410571999999998;stroke-miterlimit:4;stroke-opacity:1;stroke-dasharray:none;font-family:Sans"
           xml:space="preserve"
           transform="matrix(0.99415937,0.10792198,0.10792198,-0.99415937,0,0)"><tspan
             id="tspan10330"
             style="font-size:17.66844748999999837px;font-style:normal;font-variant:normal;font-weight:bold;font-stretch:normal;fill:#000000;fill-opacity:1;stroke:#075cff;stroke-width:0.31410571999999998;stroke-miterlimit:4;stroke-opacity:1;stroke-dasharray:none;font-family:Ubuntu;-inkscape-font-specification:Ubuntu Bold"
             y="-976.66626"
             x="257.83658"
             sodipodi:role="line">B</tspan></text>
      </g>
    </g>
  </g>
</svg>
