<?xml version="1.0" encoding="utf-8"?>
<!-- Generator: Adobe Illustrator 16.0.0, SVG Export Plug-In . SVG Version: 6.00 Build 0)  -->
<!DOCTYPE svg PUBLIC "-//W3C//DTD SVG 1.1//EN" "http://www.w3.org/Graphics/SVG/1.1/DTD/svg11.dtd">
<svg version="1.1" xmlns="http://www.w3.org/2000/svg" xmlns:xlink="http://www.w3.org/1999/xlink" x="0px" y="0px" width="50px"
	 height="50px" viewBox="0 0 50 50" enable-background="new 0 0 50 50" xml:space="preserve">
<g id="_x31_">
</g>
<g id="_x32_">
</g>
<g id="Layer_3">
</g>
<g id="Layer_4">
</g>
<g id="Layer_5">
</g>
<g id="Layer_6">
</g>
<g id="Layer_7">
</g>
<g id="Layer_8">
</g>
<g id="Layer_9">
</g>
<g id="Layer_10">
</g>
<g id="Layer_11">
</g>
<g id="Layer_12">
</g>
<g id="Layer_13">
</g>
<g id="Layer_14">
</g>
<g id="Layer_15">
</g>
<g id="Layer_16">
</g>
<g id="Layer_17">
</g>
<g id="Layer_19">
</g>
<g id="Layer_20">
</g>
<g id="Layer_21">
</g>
<g id="Layer_22">
</g>
<g id="Layer_23">
</g>
<g id="Layer_24">
</g>
<g id="Layer_25">
</g>
<g id="Layer_26">
	<g>
		<path d="M13.352,14.548c0-0.396,0-0.795,0-1.193v-2.455v-0.254H2.189H0.31H0.216v26v2.134v0.575h13.139v-1.705
			c0.011-0.063,0.013-0.12,0-0.174v-0.83h-0.003V14.548z M4.512,29.039c-0.146,0.39-0.461,0.751-0.921,0.689
			c-0.535-0.071-1.005-0.409-1.005-1.005s0.47-0.933,1.005-1.004c0.484-0.064,0.806,0.338,0.941,0.748
			c0.046,0.078,0.074,0.163,0.063,0.256C4.612,28.856,4.572,28.956,4.512,29.039z M6.741,35.085
			c-0.967-0.052-1.921-0.809-1.863-1.859c0.052-0.969,0.812-1.916,1.863-1.86c1.052,0.058,1.8,0.81,1.856,1.86
			C8.545,34.19,7.79,35.142,6.741,35.085z M5.789,28.632c0-0.596,0.47-0.934,1.005-1.005c0.483-0.064,0.806,0.337,0.941,0.748
			c0.046,0.078,0.076,0.163,0.063,0.257c0.017,0.132-0.022,0.231-0.084,0.314c-0.145,0.389-0.46,0.752-0.921,0.689
			C6.259,29.563,5.789,29.228,5.789,28.632z M10.998,28.946c-0.145,0.389-0.46,0.752-0.921,0.689
			c-0.537-0.072-1.005-0.408-1.005-1.004s0.468-0.934,1.005-1.005c0.484-0.064,0.806,0.337,0.942,0.748
			c0.045,0.078,0.073,0.163,0.062,0.257C11.099,28.764,11.059,28.863,10.998,28.946z M10.445,24.118c-2.408,0-4.815,0-7.224,0
			c-1.004,0-1.004-1.557,0-1.557c2.408,0,4.815,0,7.224,0C11.449,22.562,11.449,24.118,10.445,24.118z M10.524,21.307
			c-2.407,0-4.815,0-7.224,0c-1.003,0-1.003-1.556,0-1.556c2.408,0,4.816,0,7.224,0C11.529,19.751,11.529,21.307,10.524,21.307z
			 M10.524,18.308c-2.407,0-4.815,0-7.224,0c-1.003,0-1.003-1.555,0-1.555c2.408,0,4.816,0,7.224,0
			C11.529,16.753,11.529,18.308,10.524,18.308z M10.524,15.449c-2.407,0-4.815,0-7.224,0c-1.003,0-1.003-1.556,0-1.556
			c2.408,0,4.816,0,7.224,0C11.529,13.894,11.529,15.449,10.524,15.449z"/>
		<path d="M49.783,35.604V13.416H15.151v22.188h14.136v1.429h-7.39v1.178h20.689v-1.178h-7.229v-1.429H49.783z M17.685,32.336
			V15.949h29.564v16.387H17.685z"/>
	</g>
</g>
<g id="Layer_27">
</g>
<g id="Layer_28">
</g>
<g id="Layer_29">
</g>
<g id="Layer_30">
</g>
<g id="Layer_31">
</g>
<g id="Layer_32">
</g>
<g id="Layer_33">
</g>
<g id="Layer_34">
</g>
<g id="Layer_35">
</g>
<g id="Layer_36">
</g>
<g id="Layer_37">
</g>
<g id="Layer_38">
</g>
<g id="Layer_39">
</g>
<g id="Layer_40">
</g>
<g id="Layer_41">
</g>
<g id="Layer_42">
</g>
<g id="Layer_43">
</g>
<g id="Layer_44">
</g>
<g id="Layer_45">
</g>
<g id="Layer_46">
</g>
<g id="Layer_47">
</g>
<g id="Layer_48">
</g>
<g id="Layer_49">
</g>
<g id="Layer_50">
</g>
<g id="Layer_51">
</g>
<g id="Layer_52">
</g>
<g id="Layer_53">
</g>
<g id="Layer_57">
</g>
<g id="Layer_54">
</g>
<g id="Layer_55">
</g>
<g id="Layer_56">
</g>
<g id="Layer_59">
</g>
<g id="Layer_60">
</g>
<g id="Layer_61">
</g>
<g id="Layer_62">
</g>
<g id="Layer_63">
</g>
<g id="Layer_64">
</g>
<g id="Layer_65">
</g>
<g id="Layer_66">
</g>
<g id="Layer_67">
</g>
<g id="Layer_68">
</g>
<g id="Layer_69">
</g>
<g id="Layer_70">
</g>
<g id="Layer_71">
</g>
<g id="Layer_72">
</g>
<g id="Layer_73">
</g>
<g id="Layer_74">
</g>
<g id="Layer_75">
</g>
<g id="Layer_76">
</g>
<g id="Layer_77">
</g>
<g id="Layer_78">
</g>
<g id="Layer_79">
</g>
<g id="Layer_80">
</g>
<g id="Layer_81">
</g>
<g id="Layer_82">
</g>
<g id="Layer_83">
</g>
<g id="Layer_84">
</g>
<g id="Layer_85">
</g>
<g id="Layer_86">
</g>
<g id="Layer_87">
</g>
<g id="Layer_88">
</g>
<g id="Layer_89">
</g>
<g id="Layer_90">
</g>
<g id="Layer_91">
</g>
<g id="Layer_92">
</g>
<g id="Layer_93">
</g>
<g id="Layer_94">
</g>
<g id="Layer_95">
</g>
<g id="Layer_96">
</g>
<g id="Layer_97">
</g>
<g id="Layer_98">
</g>
<g id="Layer_99">
</g>
<g id="Layer_100">
</g>
<g id="Layer_101">
</g>
<g id="text">
</g>
</svg>
