<?xml version="1.0" encoding="utf-8"?>
<!-- Generator: Adobe Illustrator 16.0.4, SVG Export Plug-In . SVG Version: 6.00 Build 0)  -->
<!DOCTYPE svg PUBLIC "-//W3C//DTD SVG 1.1//EN" "http://www.w3.org/Graphics/SVG/1.1/DTD/svg11.dtd">
<svg version="1.1" id="Layer_1" xmlns="http://www.w3.org/2000/svg" xmlns:xlink="http://www.w3.org/1999/xlink" x="0px" y="0px"
	 width="50px" height="50px" viewBox="0 0 50 50" enable-background="new 0 0 50 50" xml:space="preserve">
<path d="M36.349,16.867h-6.272c-0.389-0.552-1.507-1.005-2.995-1.228l1.728-8.51l-4.004,7.928l-3.615-4.436l1.594,5.043
	c-1.419,0.229-2.484,0.667-2.861,1.201h-6.271c-2.805,0-5.08,2.273-5.08,5.078V33.69c0,2.807,2.275,5.08,5.08,5.08h1.084
	l-0.399,3.123c-0.081,0.36,0.397,0.772,1.067,0.922c0.668,0.15,1.275-0.021,1.356-0.381l1.179-3.664h14.123l1.18,3.664
	c0.08,0.359,0.688,0.531,1.356,0.381c0.67-0.148,1.147-0.562,1.066-0.922l-0.399-3.123h1.086c2.805,0,5.078-2.273,5.078-5.08V21.944
	C41.427,19.142,39.152,16.867,36.349,16.867z M34.185,34.603c0,0.812-0.658,1.469-1.467,1.469H12.276
	c-0.808,0-1.466-0.657-1.466-1.469V21.036c0-0.809,0.658-1.469,1.466-1.469h20.441c0.809,0,1.467,0.66,1.467,1.469V34.603z
	 M37.935,22.418c0.863,0,1.564,0.701,1.564,1.565c0,0.861-0.701,1.563-1.564,1.563c-0.864,0-1.564-0.702-1.564-1.563
	C36.369,23.119,37.069,22.418,37.935,22.418z M37.935,32.976c-1.249,0-2.263-1.014-2.263-2.261c0-1.251,1.014-2.265,2.263-2.265
	c1.25,0,2.263,1.014,2.263,2.265C40.196,31.962,39.185,32.976,37.935,32.976z M23.793,28.104l1.086,1.367v-0.949
	c0-0.129-0.02-0.221-0.059-0.267c-0.049-0.062-0.136-0.093-0.258-0.092v-0.06h0.725v0.06c-0.092,0.014-0.154,0.028-0.187,0.049
	c-0.032,0.017-0.059,0.048-0.074,0.091C25.007,28.349,25,28.419,25,28.522v1.832h-0.057l-1.486-1.832v1.399
	c0,0.125,0.027,0.214,0.085,0.255c0.061,0.045,0.126,0.066,0.2,0.066h0.051v0.062h-0.777v-0.062c0.119,0,0.204-0.023,0.251-0.073
	c0.051-0.05,0.072-0.132,0.072-0.248V28.37l-0.048-0.059c-0.047-0.058-0.088-0.096-0.123-0.117c-0.036-0.018-0.087-0.026-0.152-0.03
	v-0.06H23.793L23.793,28.104z M26.172,28.231v0.896h0.043c0.141,0,0.24-0.044,0.304-0.131c0.062-0.088,0.103-0.216,0.12-0.388h0.062
	v1.15h-0.062c-0.014-0.124-0.04-0.229-0.081-0.308c-0.043-0.082-0.09-0.136-0.146-0.16c-0.056-0.028-0.137-0.044-0.24-0.044v0.619
	c0,0.123,0.005,0.197,0.015,0.223c0.012,0.029,0.029,0.049,0.059,0.067c0.027,0.017,0.074,0.026,0.136,0.026h0.133
	c0.204,0,0.368-0.049,0.493-0.143c0.123-0.098,0.212-0.241,0.267-0.436h0.061l-0.1,0.699h-1.9v-0.062h0.074
	c0.062,0,0.115-0.01,0.154-0.032c0.024-0.019,0.049-0.041,0.063-0.077c0.013-0.023,0.018-0.096,0.018-0.207v-1.443
	c0-0.102-0.003-0.162-0.008-0.185c-0.012-0.039-0.03-0.069-0.061-0.089c-0.041-0.03-0.097-0.046-0.168-0.046h-0.074v-0.06h1.843
	v0.65h-0.062c-0.031-0.16-0.075-0.273-0.131-0.342c-0.058-0.069-0.139-0.121-0.242-0.153c-0.062-0.021-0.176-0.028-0.34-0.028
	h-0.229V28.231z M30.674,28.104v0.061c-0.041,0.004-0.075,0.016-0.104,0.036c-0.028,0.019-0.052,0.05-0.075,0.088
	c-0.006,0.014-0.039,0.097-0.102,0.25l-0.689,1.815h-0.062l-0.545-1.418l-0.601,1.418h-0.061l-0.726-1.793
	c-0.071-0.18-0.124-0.289-0.151-0.328c-0.029-0.037-0.078-0.061-0.147-0.068v-0.061h0.953v0.061
	c-0.076,0.004-0.128,0.014-0.152,0.036s-0.037,0.05-0.037,0.077c0,0.043,0.024,0.132,0.077,0.261l0.433,1.067l0.346-0.834
	l-0.091-0.233c-0.05-0.126-0.089-0.21-0.114-0.253c-0.027-0.044-0.06-0.075-0.093-0.092c-0.036-0.021-0.089-0.029-0.155-0.029
	v-0.061h1.064v0.061c-0.074,0.004-0.129,0.009-0.161,0.02c-0.022,0.01-0.039,0.021-0.053,0.039c-0.015,0.02-0.021,0.037-0.021,0.061
	s0.024,0.102,0.072,0.229l0.4,1.04l0.358-0.943c0.038-0.097,0.062-0.162,0.069-0.198c0.01-0.035,0.013-0.067,0.013-0.099
	c0-0.045-0.016-0.08-0.044-0.104c-0.031-0.024-0.09-0.039-0.174-0.043v-0.06h0.57V28.104z M32.163,28.056l0.019,0.734h-0.065
	c-0.032-0.186-0.109-0.332-0.229-0.445c-0.123-0.111-0.257-0.168-0.398-0.168c-0.111,0-0.197,0.028-0.262,0.09
	c-0.065,0.059-0.099,0.127-0.099,0.202c0,0.05,0.012,0.093,0.033,0.13c0.032,0.053,0.083,0.1,0.151,0.15
	c0.051,0.036,0.169,0.1,0.353,0.189c0.258,0.125,0.431,0.244,0.521,0.357c0.089,0.114,0.133,0.239,0.133,0.387
	c0,0.185-0.071,0.342-0.215,0.475c-0.143,0.132-0.325,0.199-0.546,0.199c-0.069,0-0.135-0.008-0.195-0.021
	c-0.062-0.014-0.14-0.041-0.232-0.078c-0.051-0.023-0.094-0.033-0.127-0.033c-0.028,0-0.059,0.01-0.09,0.033
	c-0.032,0.021-0.059,0.055-0.076,0.098h-0.061v-0.828h0.061c0.048,0.232,0.14,0.412,0.274,0.531
	c0.136,0.123,0.282,0.187,0.438,0.187c0.12,0,0.218-0.032,0.289-0.097c0.071-0.068,0.108-0.146,0.108-0.233
	c0-0.054-0.016-0.103-0.043-0.149c-0.026-0.05-0.069-0.096-0.125-0.142c-0.057-0.043-0.155-0.101-0.299-0.17
	c-0.201-0.097-0.344-0.183-0.431-0.252c-0.09-0.067-0.154-0.146-0.203-0.231c-0.047-0.085-0.068-0.179-0.068-0.281
	c0-0.174,0.062-0.321,0.19-0.445c0.13-0.127,0.291-0.186,0.487-0.186c0.071,0,0.142,0.006,0.207,0.024
	c0.05,0.013,0.112,0.036,0.186,0.073c0.072,0.033,0.126,0.051,0.152,0.051c0.029,0,0.052-0.01,0.068-0.025s0.031-0.058,0.045-0.123
	h0.048V28.056z M17.582,29.938c0.486,0,0.914-0.119,1.195-0.311c-0.193,0.299-0.656,0.512-1.195,0.512
	c-0.541,0-1.004-0.213-1.196-0.512C16.666,29.817,17.096,29.938,17.582,29.938z M15.893,26.878c0.265,0,0.479,0.216,0.479,0.48
	c0,0.264-0.215,0.479-0.479,0.479c-0.265,0-0.479-0.216-0.479-0.479C15.414,27.094,15.627,26.878,15.893,26.878z M19.27,27.839
	c-0.267,0-0.48-0.216-0.48-0.48c0-0.264,0.215-0.479,0.48-0.479c0.265,0,0.478,0.216,0.478,0.479
	C19.747,27.623,19.534,27.839,19.27,27.839z M20.263,31.798l0.103-0.115c0.048,0.017,0.094,0.043,0.136,0.073l-0.116,0.13
	C20.343,31.853,20.306,31.825,20.263,31.798z M20.2,32.457c-0.042-0.024-0.083-0.052-0.124-0.083l0.127-0.143l0.111,0.095
	L20.2,32.457z M20.377,32.257l-0.11-0.097l0.127-0.146c0.037,0.034,0.069,0.076,0.1,0.112L20.377,32.257z M20.172,31.752
	c-0.051-0.026-0.104-0.046-0.157-0.06c0.049-0.02,0.101-0.033,0.153-0.037c0.019,0,0.034,0,0.05,0s0.028,0,0.045,0.002l-0.084,0.096
	C20.177,31.752,20.173,31.752,20.172,31.752z M22.713,33.438h-0.168l-1.239-1.239l0.424-0.486l-1.272-1.122l-0.202,0.232
	c-0.064-0.208-0.182-0.398-0.356-0.551c-0.033-0.031-0.074-0.039-0.109-0.064c0.067-0.045,0.144-0.081,0.207-0.133
	c0.047-0.035,0.092-0.076,0.139-0.116c0.199-0.176,0.39-0.368,0.551-0.583l0,0c0.236-0.318,0.427-0.677,0.558-1.064l0.039-0.115
	l0.121,0.018c0.028,0.001,0.049,0.012,0.062,0.016c0.299,0,0.553-0.36,0.553-0.811c0-0.284-0.113-0.539-0.281-0.679
	c-0.055,0.381-0.134,0.624-0.151,0.62c0.059-0.064-0.443-1.838-2.403-2.291c-0.038-0.01-0.073-0.021-0.111-0.032
	c-0.29,0.679-0.833,1.185-1.681,1.028c-2.951-0.549-3.779,1.184-3.713,1.295c-0.021,0.004-0.14-0.244-0.22-0.641
	c-0.186,0.135-0.305,0.396-0.305,0.698c0,0.449,0.254,0.81,0.566,0.81c-0.003-0.004,0.02-0.014,0.048-0.015l0.12-0.019l0.039,0.117
	c0.132,0.388,0.321,0.744,0.559,1.063c0.16,0.215,0.349,0.407,0.549,0.583c0.047,0.04,0.092,0.081,0.141,0.116
	c0.411,0.334,0.891,0.575,1.408,0.717c0.064,0.019,0.127,0.033,0.191,0.047c0.265,0.056,0.533,0.095,0.811,0.095
	c0.117,0,0.229-0.029,0.344-0.039c-0.106,0.43,0.009,0.898,0.363,1.211c0.17,0.148,0.373,0.242,0.583,0.279l-0.202,0.227
	l0.938,0.828h-7.156c0-1.56,0.711-2.935,1.81-3.877c-0.236-0.312-0.435-0.656-0.576-1.037c-0.461-0.021-0.83-0.51-0.83-1.106
	c0-0.456,0.224-0.853,0.553-1.013c-0.09-0.801,0.035-1.977,1.089-2.987c1.355-1.304,3.896-1.733,4.583-0.769
	c0.029,0.045,0.059,0.096,0.082,0.15c0.654,0.086,1.424,0.491,1.94,1.113c0.64,0.763,0.726,1.77,0.669,2.499
	c0.324,0.161,0.543,0.552,0.543,1.005c0,0.598-0.371,1.086-0.83,1.107c-0.141,0.379-0.34,0.724-0.575,1.035
	C22.004,30.504,22.713,31.879,22.713,33.438z M20.455,31.946l0.112-0.131c0.038,0.037,0.069,0.082,0.091,0.127l-0.104,0.111
	C20.527,32.019,20.492,31.981,20.455,31.946z M20.195,32.099l-0.111-0.101l0.113-0.127c0.045,0.024,0.084,0.05,0.125,0.086
	L20.195,32.099z M20.017,31.937l-0.164-0.142c0.012-0.015,0.022-0.022,0.035-0.034c0.078,0.014,0.153,0.034,0.227,0.064
	L20.017,31.937z M20.022,32.071l0.109,0.097l-0.127,0.146c-0.037-0.035-0.067-0.069-0.102-0.11L20.022,32.071z M20.691,32.038
	c0.009,0.031,0.016,0.061,0.017,0.096c0.003,0.018,0,0.034-0.001,0.051c-0.002,0.032-0.006,0.062-0.013,0.094
	c-0.007-0.018-0.017-0.03-0.026-0.049c-0.016-0.033-0.033-0.064-0.055-0.096L20.691,32.038z M20.47,30.802l-0.172,0.196l-1.242,1.41
	l-0.173,0.19l0.946,0.84h0.179l0.244-0.272l0.947-1.075l0.317-0.361L20.47,30.802z M20.652,32.563
	c-0.107,0.119-0.254,0.193-0.415,0.203c-0.015,0-0.028-0.004-0.044,0c-0.146,0-0.283-0.052-0.392-0.146
	c-0.104-0.096-0.165-0.209-0.19-0.328c-0.04-0.182,0.003-0.38,0.135-0.525c0.107-0.123,0.256-0.193,0.418-0.203
	c0.027-0.002,0.06,0.002,0.088,0.002c0.13,0.013,0.25,0.061,0.351,0.146c0.106,0.098,0.174,0.229,0.194,0.374
	c0,0.013,0.007,0.024,0.006,0.041C20.812,32.288,20.761,32.442,20.652,32.563z M20.602,32.303c0.018,0.033,0.033,0.073,0.045,0.113
	c-0.012,0.017-0.025,0.032-0.035,0.048l-0.087-0.074l-0.077-0.068l0.103-0.115C20.569,32.237,20.588,32.271,20.602,32.303z
	 M20.463,32.457l0.086,0.076c-0.013,0.013-0.023,0.024-0.037,0.038c-0.041-0.01-0.081-0.021-0.12-0.03
	c-0.037-0.011-0.071-0.024-0.104-0.035l0.1-0.112L20.463,32.457z M20.368,33.257l0.233,0.182h-0.394L20.368,33.257z M19.852,32.125
	c-0.045-0.065-0.075-0.14-0.097-0.207c0.008-0.021,0.021-0.036,0.035-0.052l0.16,0.143L19.852,32.125z M20.324,32.617
	c0.022,0.009,0.041,0.017,0.062,0.021c-0.035,0.014-0.067,0.02-0.104,0.026c-0.016,0.002-0.031,0.007-0.05,0.007
	c-0.033,0.005-0.062,0.005-0.095-0.001l0.084-0.095C20.256,32.595,20.291,32.604,20.324,32.617z M19.943,32.384l-0.113,0.131
	c-0.035-0.037-0.065-0.078-0.09-0.125l0.103-0.115C19.873,32.313,19.906,32.347,19.943,32.384z M20.015,32.442
	c0.039,0.035,0.082,0.062,0.123,0.086l-0.105,0.119c-0.045-0.02-0.092-0.047-0.131-0.074L20.015,32.442z M19.785,32.198l-0.08,0.09
	c-0.004-0.014-0.004-0.031-0.006-0.044c-0.012-0.062-0.01-0.13,0.004-0.188c0.021,0.045,0.049,0.09,0.078,0.139
	C19.781,32.194,19.785,32.194,19.785,32.198z"/>
</svg>
