<?xml version="1.0" encoding="iso-8859-1"?>
<!-- Generator: Adobe Illustrator 16.0.4, SVG Export Plug-In . SVG Version: 6.00 Build 0)  -->
<!DOCTYPE svg PUBLIC "-//W3C//DTD SVG 1.1//EN" "http://www.w3.org/Graphics/SVG/1.1/DTD/svg11.dtd">
<svg version="1.1" id="Capa_1" xmlns="http://www.w3.org/2000/svg" xmlns:xlink="http://www.w3.org/1999/xlink" x="0px" y="0px"
	 width="64px" height="64px" viewBox="0 0 64 64" style="enable-background:new 0 0 64 64;" xml:space="preserve">
<g>
	<path d="M29.852,38.572c0,0-0.113,0-0.31,0v-1.484h-0.928V23.364c0-0.553-0.152-1-0.34-1h-0.34V8.825
		c-0.471,0.991-1.101,2.037-1.864,3.056c-1.545,2.062-4.005,4.469-5.852,4.469c-0.31,0-0.579-0.087-0.822-0.22v6.234
		c0,0-0.152,0-0.34,0s-0.34,0.447-0.34,1v13.724H17.79v1.484c-1.671,0-1.98,2.351-1.98,2.351v15.095c0,0,0.804,2.338,7.856,2.281
		c7.052-0.055,7.856-2.281,7.856-2.281V43.212v-2.289C31.522,38.634,29.852,38.572,29.852,38.572z"/>
	<path d="M27.681,4.627c1,0.75,0.014,3.756-2.204,6.716c-2.217,2.96-4.826,4.751-5.826,4.002c-1-0.75-0.014-3.756,2.204-6.716
		C24.072,5.669,26.681,3.878,27.681,4.627z"/>
	<path d="M33.467,17.125c-2.503,0-4.533,0.56-4.533,1.25v3.082c0.38,0.274,0.681,0.83,0.681,1.783v12.724h0.928v1.615
		c0.915,0.306,1.979,1.196,1.979,3.22v7.94c0.156,0.005,0.311,0.011,0.478,0.011c3.875,0,5-1.875,5-1.875v-28.5
		C38,17.685,35.971,17.125,33.467,17.125z"/>
</g>
</svg>
