<?xml version="1.0" encoding="utf-8"?>
<!-- Generator: Adobe Illustrator 16.0.4, SVG Export Plug-In . SVG Version: 6.00 Build 0)  -->
<!DOCTYPE svg PUBLIC "-//W3C//DTD SVG 1.1//EN" "http://www.w3.org/Graphics/SVG/1.1/DTD/svg11.dtd">
<svg version="1.1" id="Layer_1" xmlns="http://www.w3.org/2000/svg" xmlns:xlink="http://www.w3.org/1999/xlink" x="0px" y="0px"
	 width="50px" height="50px" viewBox="0 0 50 50" enable-background="new 0 0 50 50" xml:space="preserve">
<path d="M43.474,22.354L43.474,22.354c0.052,0.576,0.005,1.121-0.115,1.689c-0.05,0.283-0.149,0.566-0.276,0.857
	c-0.14,0.287-0.304,0.595-0.668,0.873l-0.406,0.312l-0.4-0.354c-0.32-0.287-0.545-0.86-0.913-1.037
	c-0.079-0.062-0.176,0.014-0.073,0.055c0.088,0.009,0.104,0.021,0.144,0.104c0.071,0.144,0.196,0.353,0.327,0.539v0.002l0.053,0.563
	l-0.312,0.208c-0.211,0.138-0.356,0.202-0.556,0.275c-0.187,0.065-0.392,0.117-0.612,0.136c-0.444,0.049-0.983-0.144-1.281-0.468
	c-0.313-0.319-0.438-0.666-0.549-0.985c-0.099-0.324-0.144-0.638-0.185-0.946l-0.011-0.084l0.007-0.033
	c0.017-0.07,0.007-0.223-0.021-0.301c-0.027-0.087-0.062-0.132-0.127-0.176c-0.066-0.042-0.183-0.075-0.32-0.064
	c-0.155,0.01-0.396,0.014-0.571,0.004c-0.759-0.039-1.509-0.226-2.194-0.558c-0.346-0.165-0.646-0.396-0.973-0.603
	c-0.318-0.213-0.656-0.436-0.938-0.731c-0.272-0.294-0.5-0.641-0.674-1.001c-0.012-0.021-0.018-0.043-0.027-0.062
	c-0.143,0.115-0.285,0.232-0.418,0.354c-0.379,0.311-0.727,0.655-1.08,0.997c-0.34,0.354-0.661,0.728-0.952,1.126
	c-0.276,0.402-0.56,0.814-0.767,1.262c-0.244,0.436-0.4,0.906-0.582,1.373c-0.123,0.482-0.279,0.967-0.322,1.473
	c-0.096,0.502-0.094,1.012-0.109,1.526c-0.012,0.517,0.078,1.029,0.114,1.554l-0.16,0.039c-0.123-0.513-0.301-1.021-0.381-1.553
	l-0.11-0.802c-0.056-0.271-0.019-0.539-0.029-0.812c-0.026-0.549,0.062-1.09,0.127-1.639c0.121-0.535,0.224-1.088,0.439-1.599
	c0.178-0.529,0.436-1.024,0.697-1.519c0.275-0.486,0.589-0.947,0.928-1.394c0.344-0.443,0.725-0.853,1.139-1.231
	c0.426-0.377,0.855-0.699,1.408-0.979l0.963-0.494l0.127,0.994v0.001c0.059,0.304,0.06,0.637,0.154,0.932
	c0.059,0.317,0.201,0.59,0.313,0.895c0.136,0.287,0.284,0.59,0.51,0.839c0.239,0.233,0.54,0.39,0.847,0.517
	c0.62,0.248,1.297,0.365,1.965,0.35c0.184-0.004,0.299-0.013,0.5-0.037c0.215-0.023,0.469-0.02,0.727,0.084
	c0.261,0.103,0.492,0.332,0.602,0.574c0.114,0.252,0.162,0.463,0.157,0.748l-0.004-0.119c0.117,0.498,0.313,1.051,0.581,1.196
	c0.121,0.07,0.184,0.062,0.309,0.026c0.06-0.021,0.129-0.051,0.199-0.1c0.018-0.119,0.032-0.235,0.07-0.369
	c0.052-0.168,0.127-0.432,0.417-0.59c0.305-0.129,0.499-0.019,0.659-0.021c0.359,0.088,0.703,0.167,1.02,0.292
	c0.104-0.208,0.205-0.475,0.286-0.734c0.13-0.42,0.235-0.881,0.358-1.322c-0.855-1.557-2.057-2.965-3.271-4.326
	c-0.635-0.701-1.353-1.324-2.047-1.965c-0.701-0.635-1.416-1.264-2.14-1.859l-0.137-0.111l-0.033-0.269
	c-0.084-0.731-0.363-1.358-0.815-1.89c-0.228-0.264-0.493-0.498-0.79-0.702c-0.018-0.011-0.035-0.021-0.054-0.032
	c-0.029,0.3-0.054,0.607-0.074,0.91c-0.052,0.665-0.079,1.352-0.093,2.02l-0.01,0.465l-0.405,0.164
	c-0.638,0.26-1.278,0.541-1.849,0.952c-0.572,0.402-1.142,0.834-1.638,1.354c-1.003,1.025-1.862,2.24-2.515,3.572l-0.154-0.052
	c0.354-1.478,1.034-2.882,1.982-4.116c0.83-1.135,1.966-2.055,3.248-2.721c-0.018-0.57-0.032-1.134-0.021-1.707
	c0.032-0.715,0.051-1.404,0.227-2.191l0.193-0.866l0.803,0.348c0.265,0.115,0.446,0.218,0.655,0.343c0.2,0.121,0.396,0.25,0.578,0.4
	c0.365,0.3,0.699,0.645,0.981,1.034c0.543,0.714,0.787,1.655,0.731,2.528c0.101,0.095,0.197,0.195,0.298,0.291l8.424-6.438
	l-6.897,7.938c0.687,0.707,1.36,1.422,2.034,2.144c1.344,1.369,2.623,2.802,3.699,4.467l0.067,0.106L43.474,22.354z M33.805,29.285
	c-0.35-0.899-0.641-1.852-0.823-2.811c-0.09-0.481-0.146-0.972-0.147-1.461c0.002-0.481,0.063-0.994,0.359-1.402
	c-0.351,0.365-0.49,0.892-0.558,1.39c-0.073,0.506-0.05,1.017-0.011,1.522c0.092,1.014,0.289,1.998,0.562,2.986l0.016,0.035
	c0.711,1.78,0.608,3.783,0.135,5.656c-0.231,0.943-0.562,1.867-0.94,2.767c-0.196,0.455-0.407,0.912-0.633,1.357l-0.257-0.579
	l-0.947-1.855c-0.686-1.209-1.428-2.392-2.281-3.504c-1.667-2.248-3.76-4.218-6.194-5.677c-2.429-1.466-5.213-2.315-8.015-2.555
	c-1.404-0.101-2.813-0.062-4.197,0.129c-1.39,0.194-2.735,0.491-4.077,1.005l-0.375,0.143l0.107,0.356
	c0.096,0.312,0.209,0.526,0.353,0.763c0.149,0.223,0.31,0.437,0.497,0.622c0.366,0.378,0.799,0.673,1.256,0.894
	c0.462,0.217,0.947,0.349,1.433,0.43c0.489,0.072,0.979,0.066,1.46,0.042c-0.957-0.121-1.887-0.401-2.656-0.894
	c-0.376-0.256-0.708-0.564-0.963-0.92c-0.134-0.175-0.236-0.367-0.329-0.561c-0.022-0.051-0.045-0.105-0.066-0.162
	c1.117-0.314,2.305-0.52,3.479-0.607c1.317-0.104,2.644-0.057,3.942,0.115c1.302,0.159,2.584,0.448,3.813,0.881
	c1.227,0.438,2.41,0.991,3.523,1.67c1.106,0.688,2.141,1.488,3.105,2.373c0.452,0.475,0.952,0.9,1.375,1.406
	c0.447,0.481,0.871,0.984,1.267,1.514c0.819,1.033,1.521,2.162,2.21,3.297l0.963,1.748l0.866,1.806l0.604,1.255l0.65-1.178
	c0.521-0.939,0.911-1.876,1.264-2.854c0.346-0.977,0.635-1.973,0.821-2.996c0.19-1.021,0.286-2.07,0.22-3.123
	C34.56,31.266,34.299,30.218,33.805,29.285z M21.604,25.575c0,0,0.053-0.248,0.144-0.685c0.04-0.216,0.088-0.476,0.143-0.774
	c0.037-0.302,0.176-0.623,0.252-0.983c0.099-0.357,0.17-0.751,0.342-1.14c0.166-0.388,0.285-0.815,0.489-1.224
	c0.21-0.402,0.375-0.844,0.632-1.246c0.245-0.407,0.473-0.834,0.777-1.213c0.525-0.813,1.211-1.506,1.842-2.166
	c0.67-0.615,1.303-1.207,1.919-1.619c1.193-0.887,2.102-1.353,2.102-1.353s-0.254,0.039-0.679,0.175
	c-0.418,0.146-1.034,0.342-1.709,0.713c-1.37,0.688-3.076,1.959-4.271,3.687c-0.319,0.413-0.556,0.881-0.81,1.328
	c-0.275,0.435-0.403,0.933-0.602,1.377c-0.197,0.444-0.26,0.922-0.376,1.347c-0.124,0.428-0.146,0.852-0.197,1.232
	c-0.04,0.382-0.105,0.729-0.073,1.044c0.012,0.31,0.021,0.581,0.029,0.806C21.588,25.32,21.604,25.575,21.604,25.575z
	 M37.391,18.368c0.223-0.237-0.127-0.681-0.622-1.159c-0.495-0.477-1.074-0.812-1.074-0.812s0.165,1.313,0.662,1.791
	C36.851,18.663,37.168,18.605,37.391,18.368z M9.532,33.512c-0.323-0.261-0.623-0.549-0.845-0.863
	c-0.102-0.162-0.199-0.325-0.235-0.494c-0.021-0.079-0.032-0.163-0.03-0.239c0-0.015,0.004-0.033,0.005-0.049
	c1.594-0.404,3.242-0.519,4.878-0.374c1.686,0.165,3.351,0.57,4.979,1.096c0.813,0.27,1.614,0.579,2.402,0.924
	c0.786,0.35,1.58,0.688,2.351,1.08c1.54,0.784,3.06,1.628,4.532,2.571c-1.283-1.193-2.712-2.229-4.219-3.138
	c-1.495-0.935-3.099-1.695-4.769-2.295c-1.659-0.623-3.417-1.035-5.208-1.137c-0.895-0.05-1.795-0.046-2.688,0.064
	c-0.891,0.125-1.766,0.352-2.607,0.656l-0.141,0.051l-0.041,0.109c-0.074,0.195-0.068,0.311-0.064,0.457
	c0.009,0.137,0.038,0.266,0.08,0.389c0.08,0.248,0.223,0.447,0.364,0.637c0.295,0.373,0.677,0.623,1.048,0.857
	c0.763,0.445,1.572,0.76,2.399,0.996C10.956,34.422,10.192,34.025,9.532,33.512z M23.401,37.807
	c-0.734-0.352-1.465-0.716-2.236-0.992c-0.381-0.147-0.763-0.297-1.157-0.408c-0.395-0.114-0.778-0.264-1.182-0.354
	c-0.801-0.189-1.609-0.348-2.437-0.425c-0.407-0.067-0.828-0.045-1.242-0.052c-0.416-0.01-0.83-0.006-1.244,0.062
	c-0.412,0.068-0.83,0.078-1.229,0.211L11.478,36.2l-0.139,0.04l-0.043,0.121c-0.065,0.181-0.059,0.281-0.055,0.412
	c0.021,0.117,0.026,0.246,0.071,0.35c0.092,0.207,0.186,0.409,0.332,0.555c0.129,0.165,0.268,0.316,0.437,0.418
	c0.162,0.114,0.313,0.242,0.48,0.336c0.348,0.164,0.674,0.364,1.028,0.488l1.067,0.359l-0.976-0.543
	c-0.328-0.17-0.609-0.41-0.91-0.608c-0.144-0.108-0.258-0.246-0.388-0.364c-0.136-0.115-0.233-0.254-0.322-0.391
	c-0.114-0.13-0.154-0.275-0.206-0.414c-0.026-0.068-0.011-0.133-0.023-0.199c0-0.001,0-0.005,0-0.006l0.981-0.191
	c0.375-0.094,0.774-0.056,1.156-0.098c0.383-0.047,0.771-0.031,1.159-0.003c0.387,0.022,0.774,0.021,1.159,0.097
	c0.774,0.084,1.539,0.246,2.298,0.438c0.755,0.21,1.516,0.41,2.252,0.698c0.744,0.258,1.475,0.562,2.203,0.873
	c0.723,0.328,1.451,0.646,2.162,1.006c1.418,0.728,2.821,1.498,4.193,2.345c-1.185-1.099-2.496-2.06-3.877-2.908
	C24.83,38.587,24.13,38.17,23.401,37.807z"/>
</svg>
