<?xml version="1.0" encoding="iso-8859-1"?>
<!-- Generator: Adobe Illustrator 16.0.4, SVG Export Plug-In . SVG Version: 6.00 Build 0)  -->
<!DOCTYPE svg PUBLIC "-//W3C//DTD SVG 1.1//EN" "http://www.w3.org/Graphics/SVG/1.1/DTD/svg11.dtd">
<svg version="1.1" id="Capa_1" xmlns="http://www.w3.org/2000/svg" xmlns:xlink="http://www.w3.org/1999/xlink" x="0px" y="0px"
	 width="47.337px" height="41.25px" viewBox="0 0 47.337 41.25" style="enable-background:new 0 0 47.337 41.25;"
	 xml:space="preserve">
<g>
	<path id="path3564" style="fill:#040606;" d="M44.858,4.406l-2.983-1.593c0,0-4.46-2.813-17.27-2.813h-1.97
		C12.533,0,5.758,2.813,5.758,2.813L2.479,4.491c-4.038,2.105-1.929,5.607-1.929,5.607s0.43,0.846,0.96,1.914
		c0.53,1.068,1.958,1.417,3.19,0.794l6.751-3.428c1.233-0.624,1.906-1.691,1.53-2.394c-0.376-0.703-0.776-1.46-0.812-1.704
		c-0.038-0.243,1.35-0.834,2.666-1.25c1.98-0.627,4.939-1.531,7.799-1.531H25c0,0,7.183,0.147,10.2,2.718
		c0.045,0.037,0.083,0.14,0.114,0.155c0.069,0.033,0.08,0.113,0.035,0.202c-0.022,0.044-0.047,0.117-0.075,0.187
		c-0.181,0.446-0.398,0.893-0.605,1.272c-0.369,0.679,0.272,1.726,1.494,2.37l6.361,3.354c1.221,0.644,2.671,0.301,3.238-0.768
		l1.026-1.936C46.787,10.055,48.896,6.512,44.858,4.406"/>
	<path id="path3566" style="fill:#040606;" d="M24.435,37.968c-6.093,0-11.049-4.955-11.049-11.045
		c0-6.092,4.956-11.048,11.049-11.048c6.09,0,11.046,4.956,11.046,11.048C35.48,33.013,30.524,37.968,24.435,37.968L24.435,37.968z
		 M38.678,13.861c-0.266-0.68-1.083-1.361-1.814-1.361h-4.682v-2.039c0-0.73-0.334-1.711-1.062-1.711h-1.374
		c-0.731,0-1.313,0.98-1.313,1.711V12.5h-7.5v-2.039c0-0.73-1.078-1.711-1.808-1.711H17.75c-0.73,0-1.817,0.98-1.817,1.711V12.5
		h-3.929c-0.731,0-1.547,0.682-1.813,1.361L3.032,30.713c-0.266,0.68-0.25,1.817,0.038,2.488l3.404,6.735
		c0.288,0.671,1.12,1.313,1.851,1.313h32.219c0.731,0,1.565-0.626,1.853-1.299l3.29-6.681c0.287-0.67,0.304-1.857,0.038-2.539
		L38.678,13.861"/>
	<path id="path3568" style="fill:#040606;" d="M24.435,21.418c-3.037,0-5.505,2.47-5.505,5.505c0,3.033,2.469,5.502,5.505,5.502
		c3.035,0,5.502-2.469,5.502-5.502C29.937,23.888,27.469,21.418,24.435,21.418"/>
	<path id="path3570" style="fill:#040606;" d="M16.12,26.159c0.12,0.033,0.244,0.05,0.366,0.05c0.64,0,1.201-0.432,1.366-1.05
		c0.202-0.754-0.248-1.531-1-1.734c-0.122-0.031-0.244-0.049-0.368-0.049c-0.637,0-1.197,0.433-1.364,1.051
		c-0.098,0.366-0.047,0.747,0.141,1.073C15.451,25.828,15.754,26.062,16.12,26.159"/>
	<path id="path3572" style="fill:#040606;" d="M17.71,29.76c0.189-0.327,0.24-0.707,0.142-1.073c-0.165-0.619-0.727-1.05-1.366-1.05
		c-0.123,0-0.247,0.016-0.366,0.049c-0.753,0.202-1.2,0.979-0.999,1.733c0.165,0.616,0.725,1.048,1.361,1.048
		c0.124,0,0.249-0.017,0.37-0.049C17.217,30.32,17.523,30.086,17.71,29.76"/>
	<path id="path3574" style="fill:#040606;" d="M22.669,33.504c-0.12-0.031-0.243-0.049-0.365-0.049c-0.639,0-1.2,0.433-1.366,1.05
		c-0.096,0.364-0.046,0.746,0.142,1.073c0.188,0.327,0.494,0.561,0.857,0.657c0.749,0.203,1.536-0.262,1.733-0.999
		c0.099-0.366,0.049-0.746-0.141-1.073S23.034,33.603,22.669,33.504"/>
	<path id="path3576" style="fill:#040606;" d="M18.617,31.326c-0.377,0-0.733,0.147-1,0.414c-0.551,0.551-0.551,1.448,0,2.001
		c0.534,0.532,1.465,0.532,2,0c0.551-0.553,0.551-1.45,0-2.002C19.35,31.474,18.995,31.326,18.617,31.326"/>
	<path id="path3578" style="fill:#040606;" d="M26.198,20.342c0.12,0.032,0.242,0.047,0.365,0.047c0.64,0,1.204-0.431,1.368-1.049
		c0.201-0.754-0.246-1.531-1-1.733c-0.121-0.031-0.244-0.048-0.366-0.048c-0.639,0-1.203,0.432-1.366,1.05
		C24.996,19.362,25.444,20.141,26.198,20.342"/>
	<path id="path3580" style="fill:#040606;" d="M31.156,24.085c-0.188,0.328-0.239,0.709-0.14,1.074
		c0.165,0.616,0.726,1.047,1.364,1.047c0.125,0,0.249-0.016,0.37-0.049c0.365-0.099,0.668-0.332,0.858-0.658
		c0.189-0.326,0.24-0.708,0.142-1.072c-0.165-0.618-0.728-1.051-1.366-1.051c-0.123,0-0.248,0.018-0.366,0.049
		C31.652,23.523,31.346,23.758,31.156,24.085"/>
	<path id="path3582" style="fill:#040606;" d="M22.304,20.389c0.123,0,0.245-0.015,0.365-0.047c0.365-0.098,0.67-0.333,0.86-0.659
		c0.19-0.327,0.24-0.71,0.141-1.074c-0.165-0.618-0.727-1.05-1.366-1.05c-0.124,0-0.247,0.017-0.367,0.048
		c-0.754,0.202-1.203,0.979-1,1.733C21.102,19.958,21.665,20.389,22.304,20.389"/>
	<path id="path3584" style="fill:#040606;" d="M19.616,22.105c0.268-0.27,0.415-0.625,0.414-1.003c0-0.377-0.147-0.732-0.415-1
		s-0.62-0.414-0.998-0.414c-0.377,0-0.732,0.146-1,0.414c-0.267,0.268-0.415,0.623-0.415,1.001c0,0.379,0.147,0.735,0.415,1.002
		C18.149,22.642,19.083,22.641,19.616,22.105"/>
	<path id="path3586" style="fill:#040606;" d="M32.75,27.687c-0.122-0.034-0.244-0.05-0.369-0.05c-0.638,0-1.2,0.431-1.365,1.05
		c-0.099,0.365-0.047,0.746,0.14,1.073c0.19,0.326,0.496,0.561,0.861,0.656c0.121,0.034,0.244,0.051,0.367,0.051
		c0.639,0,1.2-0.432,1.365-1.048C33.952,28.664,33.502,27.888,32.75,27.687"/>
	<path id="path3588" style="fill:#040606;" d="M31.669,21.103c0-0.377-0.147-0.732-0.417-1c-0.267-0.268-0.622-0.414-1-0.414
		c-0.378,0-0.735,0.146-1.002,0.414c-0.55,0.552-0.55,1.45,0.001,2.003c0.266,0.266,0.621,0.412,1,0.412s0.734-0.146,1.001-0.415
		C31.522,21.835,31.669,21.48,31.669,21.103"/>
</g>
<g>
</g>
<g>
</g>
<g>
</g>
<g>
</g>
<g>
</g>
<g>
</g>
<g>
</g>
<g>
</g>
<g>
</g>
<g>
</g>
<g>
</g>
<g>
</g>
<g>
</g>
<g>
</g>
<g>
</g>
</svg>
