<?xml version="1.0" encoding="utf-8"?>
<!-- Generator: Adobe Illustrator 16.0.0, SVG Export Plug-In . SVG Version: 6.00 Build 0)  -->
<!DOCTYPE svg PUBLIC "-//W3C//DTD SVG 1.1//EN" "http://www.w3.org/Graphics/SVG/1.1/DTD/svg11.dtd">
<svg version="1.1" id="Layer_1_copy_3" xmlns="http://www.w3.org/2000/svg" xmlns:xlink="http://www.w3.org/1999/xlink" x="0px"
	 y="0px" width="126px" height="126px" viewBox="0 0 126 126" enable-background="new 0 0 126 126" xml:space="preserve">
<g>
	<path d="M63,8.818C33.076,8.818,8.818,33.076,8.818,63S33.076,117.182,63,117.182S117.182,92.924,117.182,63S92.924,8.818,63,8.818
		z M77.531,42.44c3.423,0,6.201,2.777,6.201,6.201c0,3.426-2.777,6.203-6.201,6.203c-3.423,0-6.203-2.777-6.203-6.203
		C71.328,45.217,74.108,42.44,77.531,42.44z M49.412,42.44c3.423,0,6.2,2.777,6.2,6.201c0,3.426-2.777,6.203-6.2,6.203
		c-3.423,0-6.201-2.777-6.201-6.203C43.211,45.217,45.988,42.44,49.412,42.44z M88.635,72.392
		c-4.284,9.904-14.318,16.304-25.563,16.304c-11.486,0-21.58-6.431-25.714-16.382c-0.184-0.443-0.135-0.949,0.132-1.347
		c0.266-0.398,0.713-0.637,1.192-0.637c0,0,0.001,0,0.002,0l48.638,0.06c0.482,0,0.932,0.244,1.196,0.647
		C88.782,71.439,88.826,71.949,88.635,72.392z"/>
</g>
</svg>
