<?xml version="1.0" encoding="iso-8859-1"?>
<!-- Generator: Adobe Illustrator 16.0.0, SVG Export Plug-In . SVG Version: 6.00 Build 0)  -->
<!DOCTYPE svg PUBLIC "-//W3C//DTD SVG 1.1//EN" "http://www.w3.org/Graphics/SVG/1.1/DTD/svg11.dtd">
<svg version="1.1" id="Capa_1" xmlns="http://www.w3.org/2000/svg" xmlns:xlink="http://www.w3.org/1999/xlink" x="0px" y="0px"
	 width="18.846px" height="23.382px" viewBox="0 0 18.846 23.382" style="enable-background:new 0 0 18.846 23.382;"
	 xml:space="preserve">
<path style="fill-rule:evenodd;clip-rule:evenodd;" d="M12.312,15.181c0.438-0.732,1.082-1.107,1.936-1.117s1.285-0.445,1.299-1.301
	c0.012-0.852,0.383-1.496,1.115-1.932c0.734-0.438,0.893-1.027,0.475-1.773c-0.416-0.744-0.416-1.488,0-2.234
	c0.418-0.744,0.26-1.332-0.475-1.77c-0.732-0.439-1.104-1.082-1.115-1.938c-0.014-0.852-0.445-1.287-1.299-1.297
	c-0.854-0.012-1.498-0.385-1.936-1.117c-0.438-0.734-1.027-0.893-1.771-0.475c-0.744,0.416-1.49,0.416-2.234,0
	C7.562-0.19,6.973-0.032,6.535,0.702C6.098,1.435,5.453,1.808,4.6,1.819c-0.852,0.01-1.285,0.445-1.297,1.297
	C3.289,3.972,2.918,4.614,2.186,5.054c-0.734,0.438-0.895,1.025-0.475,1.77c0.418,0.746,0.418,1.49,0,2.234
	c-0.42,0.746-0.26,1.336,0.475,1.773c0.732,0.436,1.104,1.08,1.117,1.932c0.012,0.855,0.445,1.291,1.297,1.301
	c0.854,0.01,1.498,0.385,1.936,1.117c0.438,0.734,1.027,0.893,1.771,0.473c0.744-0.412,1.49-0.412,2.234,0
	C11.285,16.073,11.875,15.915,12.312,15.181z M9.426,12.614c-2.582,0-4.674-2.092-4.674-4.674c0-2.58,2.092-4.672,4.674-4.672
	c2.58,0,4.672,2.092,4.672,4.672C14.098,10.522,12.006,12.614,9.426,12.614z"/>
<path style="fill-rule:evenodd;clip-rule:evenodd;" d="M4.525,14.749c-0.898,0-1.018-0.418-1.018-0.418L0,21.224l2.812-0.316
	l1.555,2.34c0,0,3.24-6.76,3.24-6.715C5.928,16.491,6.596,14.794,4.525,14.749z"/>
<path style="fill-rule:evenodd;clip-rule:evenodd;" d="M15.295,14.601c-2.562,0.268-2.041,0.904-2.627,1.398
	c-0.674,0.719-1.516,0.578-1.516,0.578l3.955,6.805l0.973-2.52l2.766,0.361L15.295,14.601z"/>
<polygon style="fill-rule:evenodd;clip-rule:evenodd;" points="10.402,6.909 9.424,4.929 8.445,6.909 6.256,7.229 7.838,8.772 
	7.465,10.954 9.424,9.925 11.383,10.954 11.01,8.772 12.592,7.229 "/>
<g>
</g>
<g>
</g>
<g>
</g>
<g>
</g>
<g>
</g>
<g>
</g>
<g>
</g>
<g>
</g>
<g>
</g>
<g>
</g>
<g>
</g>
<g>
</g>
<g>
</g>
<g>
</g>
<g>
</g>
</svg>
