<?xml version="1.0" encoding="iso-8859-1"?>
<!-- Generator: Adobe Illustrator 16.0.0, SVG Export Plug-In . SVG Version: 6.00 Build 0)  -->
<!DOCTYPE svg PUBLIC "-//W3C//DTD SVG 1.1//EN" "http://www.w3.org/Graphics/SVG/1.1/DTD/svg11.dtd">
<svg version="1.1" id="Layer_1" xmlns="http://www.w3.org/2000/svg" xmlns:xlink="http://www.w3.org/1999/xlink" x="0px" y="0px"
	 width="26.933px" height="26.932px" viewBox="0 0 26.933 26.932" style="enable-background:new 0 0 26.933 26.932;"
	 xml:space="preserve">
<g>
	<path d="M13.466,0C6.041,0,0,6.041,0,13.466c0,7.424,6.041,13.466,13.466,13.466c7.426,0,13.467-6.042,13.467-13.466
		C26.933,6.041,20.892,0,13.466,0z M13.466,25.715c-6.755,0-12.248-5.495-12.248-12.249c0-6.755,5.493-12.25,12.248-12.25
		s12.249,5.495,12.249,12.25C25.715,20.221,20.221,25.715,13.466,25.715z"/>
	<path d="M9.314,4.604L8.816,3.616L8.271,3.892l0.501,0.991C8.949,4.783,9.132,4.692,9.314,4.604z"/>
	<path d="M3.628,13.669c0-0.206,0.019-0.407,0.03-0.61H2.26v1.221h1.398C3.646,14.077,3.628,13.876,3.628,13.669z"/>
	<path d="M14.323,3.615V2.217h-1.221v1.398c0.203-0.012,0.404-0.03,0.611-0.03C13.919,3.584,14.121,3.603,14.323,3.615z"/>
	<path d="M24.062,9.057l-0.276-0.544l-1.103,0.561c0.094,0.18,0.185,0.362,0.266,0.55L24.062,9.057z"/>
	<path d="M19.053,5.125c0.174,0.108,0.344,0.22,0.508,0.338l0.612-0.95L19.66,4.182L19.053,5.125z"/>
	<path d="M4.113,7.721l1.004,0.692c0.107-0.174,0.214-0.347,0.331-0.514L4.461,7.217L4.113,7.721z"/>
	<path d="M17.864,22.855l0.745,1.478l0.546-0.276l-0.742-1.466C18.234,22.686,18.049,22.771,17.864,22.855z"/>
	<path d="M21.679,19.843l1.288,0.888l0.346-0.503l-1.269-0.875C21.929,19.522,21.803,19.682,21.679,19.843z"/>
	<path d="M23.769,13.059c0.013,0.204,0.032,0.405,0.032,0.61c0,0.207-0.02,0.408-0.032,0.611h1.398v-1.221H23.769z"/>
	<path d="M13.103,23.725v1.399h1.221v-1.399c-0.202,0.013-0.404,0.032-0.609,0.032C13.507,23.756,13.306,23.737,13.103,23.725z"/>
	<path d="M7.253,23.438l0.514,0.331l0.89-1.381c-0.177-0.102-0.353-0.204-0.521-0.317L7.253,23.438z"/>
	<path d="M3.365,18.894l0.277,0.543l1.364-0.693c-0.103-0.175-0.202-0.354-0.293-0.536L3.365,18.894z"/>
	<polygon points="14.143,4.676 13.284,4.676 13.284,13.068 13.284,13.466 13.284,14.005 8.204,19.58 8.339,19.703 13.289,14.271 
		19.836,14.271 19.836,13.068 14.143,13.068 	"/>
</g>
<g>
</g>
<g>
</g>
<g>
</g>
<g>
</g>
<g>
</g>
<g>
</g>
<g>
</g>
<g>
</g>
<g>
</g>
<g>
</g>
<g>
</g>
<g>
</g>
<g>
</g>
<g>
</g>
<g>
</g>
</svg>
