<?xml version="1.0" encoding="iso-8859-1"?>
<!-- Generator: Adobe Illustrator 17.0.0, SVG Export Plug-In . SVG Version: 6.00 Build 0)  -->
<!DOCTYPE svg PUBLIC "-//W3C//DTD SVG 1.1//EN" "http://www.w3.org/Graphics/SVG/1.1/DTD/svg11.dtd">
<svg version="1.1" id="Capa_1" xmlns="http://www.w3.org/2000/svg" xmlns:xlink="http://www.w3.org/1999/xlink" x="0px" y="0px"
	 width="64px" height="64px" viewBox="0 0 64 64" style="enable-background:new 0 0 64 64;" xml:space="preserve">
<g>
	<path d="M26.391,12.664c0.051-0.145-0.233-0.152-0.46-0.08c0.147-0.345,0.299-0.688,0.46-1.028
		c0.038-0.081-0.044-0.118-0.166-0.121c0.028-0.041,0.052-0.084,0.082-0.125c0.105-0.144-0.043-0.198-0.228-0.192
		c-0.003-0.15-0.158-0.217-0.326-0.208c0.015-0.071,0.029-0.143,0.042-0.215c0.055-0.106,0.102-0.218,0.159-0.323
		c0.018-0.033-0.02-0.052-0.083-0.061c0.006-0.04,0.018-0.08,0.024-0.119c0.013-0.094-0.095-0.128-0.229-0.121
		c0.124-0.45,0.243-0.902,0.354-1.356c0.059-0.242-0.657-0.129-0.713,0.099c-0.017,0.07-0.037,0.139-0.055,0.208
		c-0.096-0.03-0.25-0.016-0.381,0.029c0.035-0.165,0.071-0.333,0.106-0.5c0.049-0.238-0.271-0.269-0.503-0.168
		c0.001-0.028,0.006-0.057,0.007-0.085c0.01-0.196-0.222-0.237-0.425-0.185c0.037-0.191,0.076-0.383,0.112-0.575
		c0.021-0.114-0.147-0.14-0.324-0.11c0.006-0.057,0.017-0.111,0.024-0.168c0.003-0.029-0.005-0.05-0.011-0.074
		c0.021-0.187,0.048-0.37,0.068-0.558c0.032-0.315-0.691-0.188-0.718,0.08c0,0.001-0.001,0.003-0.001,0.004
		c-0.192,0.018-0.436,0.094-0.478,0.207c-0.096-0.047-0.254-0.037-0.391,0.012c0.018-0.143,0.027-0.284,0.045-0.426
		c0.032-0.244-0.399-0.221-0.608-0.072c-0.066,0.023-0.121,0.059-0.163,0.097c-0.135-0.025-0.299,0.013-0.404,0.098
		C21.17,6.627,21.131,6.63,21.09,6.638c-0.001-0.37-0.723-0.26-0.724,0.057c0,0.044-0.002,0.086-0.002,0.13
		c-0.072,0.012-0.142,0.036-0.204,0.068c-0.001-0.004-0.001-0.01-0.001-0.012c-0.017-0.108-0.115-0.153-0.233-0.157
		c-0.026-0.257-0.049-0.513-0.076-0.769c-0.022-0.207-0.741-0.056-0.715,0.191c0.017,0.155,0.03,0.311,0.046,0.468
		c-0.058,0.024-0.105,0.052-0.134,0.08c-0.067-0.283-0.753-0.109-0.713,0.178c-0.106,0-0.226,0.032-0.325,0.087
		c-0.002-0.026-0.007-0.052-0.009-0.077c-0.034-0.346-0.75-0.167-0.715,0.189c0.007,0.071,0.02,0.14,0.028,0.21
		c-0.068,0.013-0.136,0.029-0.198,0.054c-0.192-0.152-0.643-0.036-0.637,0.223c0.006,0.211,0.026,0.42,0.039,0.631
		c-0.123,0.042-0.22,0.104-0.218,0.179c-0.008-0.044-0.018-0.086-0.026-0.13c-0.031-0.167-0.354-0.146-0.556-0.033
		c-0.075,0.023-0.146,0.058-0.199,0.1c-0.216-0.082-0.714,0.13-0.639,0.248c0.177,0.283,0.347,0.568,0.513,0.86
		c-0.162-0.008-0.343,0.07-0.418,0.199c-0.079,0.01-0.16,0.033-0.23,0.066c-0.241-0.075-0.623,0.098-0.543,0.355
		c0.047,0.15,0.107,0.297,0.16,0.446c-0.219,0.035-0.497,0.153-0.469,0.232c0.115,0.315,0.23,0.63,0.346,0.945
		c-0.23-0.014-0.525,0.139-0.468,0.351c0.748,2.811,2.443,5.169,3.749,7.725l0.272-0.113c0.046-0.019,1.143-0.469,2.808-0.469
		c0.966,0,1.936,0.15,2.88,0.446l0.285,0.088c0.43-1.076,0.86-2.152,1.296-3.226c0.464-1.142,0.743-2.403,1.376-3.462
		c0.075-0.125,0.021-0.2-0.083-0.235C26.365,12.727,26.379,12.695,26.391,12.664z"/>
	<path d="M23.248,32.168c0.015-6.703,0.001-12.026,0.001-12.026c-2.961-0.925-5.182,0-5.182,0
		c-0.062,2.115,0.022,6.825,0.164,12.233C19.306,32.192,21.208,31.964,23.248,32.168z"/>
	<path d="M18.26,33.283c0.289,10.711,0.787,23.783,0.834,25.051c0.061,1.679,1.85,1.666,1.85,1.666s1.759,0.065,1.913-1.758
		c0.284-3.356,0.374-15.509,0.398-25.168C21.217,32.862,19.279,33.106,18.26,33.283z"/>
	<path d="M35.517,14.059l-2.06,0.042l0.12,5.769H33.55c-1.315,11.808,0.381,33.088,0.815,38.107l0.029,1.388
		c0.012,0.562,0.47,1.01,1.029,1.01c0.007,0,0.014,0,0.021,0c0.569-0.013,1.021-0.482,1.009-1.052l-0.005-0.259h0.005
		c1.848-26.145-0.522-37.766-0.814-39.068L35.517,14.059z"/>
	<path d="M35.47,13.344c0.561-1.872,1.274-4.403-0.364-4.403c-1.613,0-2.485,1.194-2.468,2.201c0.015,0.901,0.795,2.202,0.795,2.202
		H35.47z"/>
</g>
</svg>
