<?xml version="1.0" encoding="iso-8859-1"?>
<!-- Generator: Adobe Illustrator 17.0.0, SVG Export Plug-In . SVG Version: 6.00 Build 0)  -->
<!DOCTYPE svg PUBLIC "-//W3C//DTD SVG 1.1//EN" "http://www.w3.org/Graphics/SVG/1.1/DTD/svg11.dtd">
<svg version="1.1" id="Capa_1" xmlns="http://www.w3.org/2000/svg" xmlns:xlink="http://www.w3.org/1999/xlink" x="0px" y="0px"
	 width="64px" height="64px" viewBox="0 0 64 64" style="enable-background:new 0 0 64 64;" xml:space="preserve">
<g>
	<path d="M25.251,11.566c-0.423,0-0.766,0.371-0.766,0.83c0,0.458,0.343,0.83,0.766,0.83h4.723v1.404h-3.702
		c-0.423,0-0.766,0.372-0.766,0.83s0.343,0.83,0.766,0.83h3.702v1.404h-2.681c-0.423,0-0.766,0.372-0.766,0.83
		s0.343,0.83,0.766,0.83h2.681v1.404h-1.659c-0.423,0-0.766,0.371-0.766,0.83c0,0.458,0.343,0.83,0.766,0.83h1.659v9.404h-3.362
		c-1.128,0-2.042,0.914-2.042,2.042v26.552c0,1.128,0.914,2.042,2.042,2.042h9.149c1.128,0,2.042-0.914,2.042-2.042V33.863
		c0-1.128-0.914-2.042-2.042-2.042H32.4v-9.404h1.66c0.423,0,0.766-0.371,0.766-0.83c0-0.458-0.343-0.83-0.766-0.83H32.4v-1.404
		h2.681c0.423,0,0.766-0.372,0.766-0.83s-0.343-0.83-0.766-0.83H32.4v-1.404h3.702c0.423,0,0.766-0.372,0.766-0.83
		s-0.343-0.83-0.766-0.83H32.4v-1.404h4.723c0.423,0,0.766-0.371,0.766-0.83c0-0.458-0.343-0.83-0.766-0.83H32.4v-1.404h3.702
		c0.423,0,0.766-0.372,0.766-0.83s-0.343-0.83-0.766-0.83H32.4V7.098h2.681c0.423,0,0.766-0.372,0.766-0.83s-0.343-0.83-0.766-0.83
		H32.4V4.034h1.66c0.423,0,0.766-0.371,0.766-0.83c0-0.458-0.343-0.83-0.766-0.83h-5.745c-0.423,0-0.766,0.371-0.766,0.83
		c0,0.458,0.343,0.83,0.766,0.83h1.659v1.404h-2.681c-0.423,0-0.766,0.372-0.766,0.83s0.343,0.83,0.766,0.83h2.681v1.404h-3.702
		c-0.423,0-0.766,0.372-0.766,0.83s0.343,0.83,0.766,0.83h3.702v1.404H25.251z"/>
</g>
</svg>
