<?xml version="1.0" encoding="iso-8859-1"?>
<!-- Generator: Adobe Illustrator 16.0.0, SVG Export Plug-In . SVG Version: 6.00 Build 0)  -->
<!DOCTYPE svg PUBLIC "-//W3C//DTD SVG 1.1//EN" "http://www.w3.org/Graphics/SVG/1.1/DTD/svg11.dtd">
<svg version="1.1" id="Layer_1" xmlns="http://www.w3.org/2000/svg" xmlns:xlink="http://www.w3.org/1999/xlink" x="0px" y="0px"
	 width="100px" height="100px" viewBox="0 0 100 100" style="enable-background:new 0 0 100 100;" xml:space="preserve">
<g>
	<path d="M68.345,80.968h-9.882L35.337,47.012l-22.306-4.38L5.196,81.349c-0.516,2.477,1.074,4.9,3.551,5.417
		c0.313,0.065,0.628,0.097,0.937,0.097c2.125,0,4.03-1.484,4.48-3.647l4.419-21.22l7.885,15.697l-4.12-0.005c0,0-0.002,0-0.004,0
		c-2.527,0-4.578,2.047-4.581,4.575c-0.001,2.529,2.049,4.632,4.575,4.637l46.007,0.035c1.65,0,2.984-1.335,2.984-2.986
		C71.329,82.302,69.995,80.968,68.345,80.968z"/>
	<path d="M12.664,33.269c0.522,0.177,0.504,5.492,0.504,5.492l20.869,3.895l3.432-19.46c0.335-1.249,0.851-2.467,1.458-3.613
		c2.791-5.271-0.914-6.388-1.785-6.483c-2.167-0.238-3.978,0.798-5.331,2.526c-0.757,0.965-1.49,1.945-2.225,2.931
		c-0.213,0.288-0.438,0.372-0.806,0.287c-0.611-0.143-1.248-0.223-1.875-0.301c-3.596-0.452-6.206,1.083-9.819,1.129
		c-1.222,0.014-10.898-4.451-13.482-1.146c-2.822,3.603-1.273,7.772,1.377,10.51c1.556,1.611,3.408,2.751,5.519,3.483
		C11.219,32.766,11.942,33.021,12.664,33.269z"/>
	<path d="M90.603,40.779h-10.09c-0.734-4.04-4.271-7.115-8.519-7.115h-8.939c-4.248,0-7.784,3.075-8.519,7.115h-10.09
		c-3.069,0-5.691,1.898-6.77,4.582l22.365,32.838h8.56c3.024,0,5.484,2.459,5.484,5.48c0,1.22-0.404,2.343-1.079,3.255h17.596
		c4.029,0,7.297-3.268,7.297-7.297V48.077C97.899,44.047,94.632,40.779,90.603,40.779z M63.055,37.313h8.939
		c2.225,0,4.114,1.457,4.77,3.466H58.285C58.94,38.771,60.83,37.313,63.055,37.313z M80.659,68.145h-8.757V76.9h-8.756v-8.756H54.39
		v-8.758h8.757V50.63h8.756v8.757h8.757V68.145z"/>
</g>
</svg>
