<?xml version="1.0" encoding="iso-8859-1"?>
<!-- Generator: Adobe Illustrator 16.0.0, SVG Export Plug-In . SVG Version: 6.00 Build 0)  -->
<!DOCTYPE svg PUBLIC "-//W3C//DTD SVG 1.1//EN" "http://www.w3.org/Graphics/SVG/1.1/DTD/svg11.dtd">
<svg version="1.1" id="Capa_1" xmlns="http://www.w3.org/2000/svg" xmlns:xlink="http://www.w3.org/1999/xlink" x="0px" y="0px"
	 width="27.793px" height="22.839px" viewBox="0 0 27.793 22.839" style="enable-background:new 0 0 27.793 22.839;"
	 xml:space="preserve">
<path d="M5.5,3.414c-0.906,0-1.643,0.736-1.643,1.646c0,0.908,0.736,1.646,1.643,1.646c0.91,0,1.646-0.738,1.646-1.646
	C7.146,4.15,6.41,3.414,5.5,3.414z"/>
<path d="M17.57,6.122c0.359,0.155,0.793,0.247,1.268,0.247c1.213,0,2.195-0.592,2.195-1.324c0-0.731-0.982-1.324-2.195-1.324
	c-0.455,0-0.879,0.083-1.227,0.227c-0.145-0.14-0.34-0.227-0.553-0.227h-0.32c-0.406,0-0.729,0.309-0.775,0.702
	c-0.984,0.103-1.711,0.458-1.711,0.884c0,0.507,1.023,0.916,2.293,0.916C16.914,6.222,17.26,6.184,17.57,6.122z"/>
<path d="M24.254,9.475V0.488C24.254,0.22,24.037,0,23.764,0H0.496C0.221,0,0,0.22,0,0.488v20.139c0,0.27,0.221,0.491,0.496,0.491
	h15.455c1.254,1.072,2.879,1.722,4.658,1.722c3.967,0,7.184-3.215,7.184-7.183C27.793,13.021,26.369,10.724,24.254,9.475z
	 M10.988,7.818C8.33,5.164,5.76,15.434,5.76,15.434H2.246V2.226h20.172v6.487c-0.578-0.151-1.182-0.24-1.809-0.24
	c-3.037,0-5.631,1.891-6.678,4.557C13.373,11.391,12.434,9.268,10.988,7.818z M20.609,21.248c-3.088,0-5.59-2.504-5.59-5.591
	s2.502-5.59,5.59-5.59s5.592,2.502,5.592,5.59S23.697,21.248,20.609,21.248z"/>
<polygon points="21.584,11.746 19.197,11.746 19.197,14.467 16.42,14.467 16.42,16.854 19.197,16.854 19.197,19.655 21.584,19.655 
	21.584,16.854 24.33,16.854 24.33,14.467 21.584,14.467 "/>
<g>
</g>
<g>
</g>
<g>
</g>
<g>
</g>
<g>
</g>
<g>
</g>
<g>
</g>
<g>
</g>
<g>
</g>
<g>
</g>
<g>
</g>
<g>
</g>
<g>
</g>
<g>
</g>
<g>
</g>
</svg>
