<?xml version="1.0" encoding="utf-8"?>
<!-- Generator: Adobe Illustrator 16.0.0, SVG Export Plug-In . SVG Version: 6.00 Build 0)  -->
<!DOCTYPE svg PUBLIC "-//W3C//DTD SVG 1.1//EN" "http://www.w3.org/Graphics/SVG/1.1/DTD/svg11.dtd">
<svg version="1.1" id="Layer_1" xmlns="http://www.w3.org/2000/svg" xmlns:xlink="http://www.w3.org/1999/xlink" x="0px" y="0px"
	 width="50px" height="50px" viewBox="0 0 50 50" enable-background="new 0 0 50 50" xml:space="preserve">
<g>
	<path d="M25,10.938l-12.404,6.617v0.464c0,13.979,11.906,20.767,12.026,20.834L25,39.063l0.377-0.21
		c0.12-0.067,12.026-6.854,12.026-20.834v-0.464L25,10.938z M25,37.267c-1.933-1.234-10.618-7.409-10.849-18.785L25,12.695
		l10.849,5.786C35.618,29.857,26.933,36.032,25,37.267z"/>
	<path d="M14.941,18.939C15.357,29.109,22.593,34.75,25,36.351c2.407-1.601,9.643-7.241,10.059-17.411L25,13.574L14.941,18.939z
		 M24.937,32.13c-1.067,0-1.778-0.771-1.778-1.799c0-1.048,0.731-1.799,1.778-1.799c1.048,0,1.74,0.751,1.759,1.799
		C26.696,31.359,26.005,32.13,24.937,32.13z M26.064,27.544h-2.253l-0.456-8.954h3.144L26.064,27.544z"/>
</g>
</svg>
